<svg width="68" height="69" viewBox="0 0 68 69" fill="none" xmlns="http://www.w3.org/2000/svg">
<rect y="0.5" width="68" height="68" rx="34" fill="#BFDBFE"/>
<path d="M33.336 43.288C32.168 43.288 31.176 43.104 30.36 42.736C29.544 42.368 28.92 41.832 28.488 41.128C28.056 40.424 27.84 39.544 27.84 38.488V37.696H30.504V38.56C30.504 39.344 30.744 39.952 31.224 40.384C31.704 40.8 32.408 41.008 33.336 41.008C34.248 41.008 34.944 40.704 35.424 40.096C35.904 39.488 36.144 38.616 36.144 37.48V26.536H38.832V37.432C38.832 38.728 38.616 39.816 38.184 40.696C37.752 41.56 37.128 42.208 36.312 42.64C35.496 43.072 34.504 43.288 33.336 43.288Z" fill="#1E3A8A"/>
</svg>
